<?xml version="1.0" encoding="UTF-8"?>
<svg width="234px" height="70px" viewBox="0 0 234 70" version="1.1"
    xmlns="http://www.w3.org/2000/svg"
    xmlns:xlink="http://www.w3.org/1999/xlink">
    <title>TheFridge</title>
    <g id="Page-1" stroke="none" stroke-width="1" fill="none" fill-rule="evenodd">
        <g id="Group-2" fill="#052450" fill-rule="nonzero">
            <path d="M12.6363636,69 L12.6363636,50.8181818 L30.7272727,50.8181818 L30.7272727,40.6363636 L12.6363636,40.6363636 L12.6363636,32.6363636 L32.7272727,32.6363636 L32.7272727,22.4545455 L0,22.4545455 L0,69 L12.6363636,69 Z M45,69 L45,53.637 L49.373,53.637 L57.5454545,69 L71.2727273,69 L61.821,51.649 L62.1268887,51.4993075 C64.2613636,50.4174641 65.9768006,48.9380719 67.2731994,47.0611307 L67.5113636,46.7045455 C68.9886364,44.4166667 69.7272727,41.6060606 69.7272727,38.2727273 C69.7272727,34.969697 69.0075758,32.1363636 67.5681818,29.7727273 C66.1287879,27.4090909 64.1136364,25.5984848 61.5227273,24.3409091 C58.9318182,23.0833333 55.9090909,22.4545455 52.4545455,22.4545455 L52.4545455,22.4545455 L32.3636364,22.4545455 L32.3636364,69 L45,69 Z M45,32.5454545 L49.4545455,32.5454545 C50.9393939,32.5454545 52.2083333,32.7462121 53.2613636,33.1477273 C54.3143939,33.5492424 55.125,34.1704545 55.6931818,35.0113636 C56.2613636,35.8522727 56.5454545,36.9393939 56.5454545,38.2727273 C56.5454545,39.5909091 56.2613636,40.6590909 55.6931818,41.4772727 C55.125,42.2954545 54.3143939,42.8901515 53.2613636,43.2613636 C52.2083333,43.6325758 50.9393939,43.8181818 49.4545455,43.8181818 L49.4545455,43.8181818 L45,43.819 L45,32.5454545 Z M111.181818,22.4545455 L111.181818,69 L123.818,69 L129.090909,69 C133.621212,69 137.574035,68.1476944 140.949377,66.4430832 L141.386364,66.2159091 C144.856061,64.3598485 147.537879,61.6931818 149.431818,58.2159091 C151.325758,54.7386364 152.272727,50.5757576 152.272727,45.7272727 C152.272727,40.8787879 151.32197,36.7159091 149.420455,33.2386364 C147.518939,29.7613636 144.82197,27.094697 141.329545,25.2386364 C137.837121,23.3825758 133.69697,22.4545455 128.909091,22.4545455 L128.909091,22.4545455 L123.818182,22.4545455 L116.181818,22.4545455 L111.181818,22.4545455 Z M123.818,33.1818182 L128.272727,33.1818182 C130.69697,33.1818182 132.746212,33.5530303 134.420455,34.2954545 C136.094697,35.0378788 137.367424,36.3181818 138.238636,38.1363636 C139.109848,39.9545455 139.545455,42.4848485 139.545455,45.7272727 C139.545455,48.969697 139.117424,51.5 138.261364,53.3181818 C137.405303,55.1363636 136.162879,56.4166667 134.534091,57.1590909 C132.905303,57.9015152 130.939394,58.2727273 128.636364,58.2727273 L128.636364,58.2727273 L123.818,58.273 L123.818,33.1818182 Z M176.727273,69.6363636 C180.787879,69.6363636 184.390152,68.8371212 187.534091,67.2386364 C190.67803,65.6401515 193.147727,63.3371212 194.943182,60.3295455 C196.738636,57.3219697 197.636364,53.6969697 197.636364,49.4545455 L197.636364,49.4545455 L197.636364,43 L177,43 L177,52 L185.449,52 L185.447917,52.1174242 C185.403725,53.2537879 185.138573,54.2638889 184.652462,55.1477273 L184.5,55.4090909 C183.863636,56.4393939 182.905303,57.2348485 181.625,57.7954545 C180.344697,58.3560606 178.742424,58.6363636 176.818182,58.6363636 C174.636364,58.6363636 172.810606,58.1212121 171.340909,57.0909091 C169.871212,56.0606061 168.765152,54.5757576 168.022727,52.6363636 C167.280303,50.6969697 166.909091,48.3636364 166.909091,45.6363636 C166.909091,42.9393939 167.299242,40.6363636 168.079545,38.7272727 C168.859848,36.8181818 169.996212,35.3560606 171.488636,34.3409091 C172.981061,33.3257576 174.787879,32.8181818 176.909091,32.8181818 C177.893939,32.8181818 178.799242,32.9280303 179.625,33.1477273 C180.450758,33.3674242 181.17803,33.6931818 181.806818,34.125 C182.435606,34.5568182 182.962121,35.0795455 183.386364,35.6931818 C183.810606,36.3068182 184.121212,37.0151515 184.318182,37.8181818 L184.318182,37.8181818 L197.090909,37.8181818 C196.848485,35.4848485 196.166667,33.3409091 195.045455,31.3863636 C193.924242,29.4318182 192.450758,27.7386364 190.625,26.3068182 C188.799242,24.875 186.700758,23.7689394 184.329545,22.9886364 C181.958333,22.2083333 179.393939,21.8181818 176.636364,21.8181818 C172.454545,21.8181818 168.643939,22.75 165.204545,24.6136364 C161.765152,26.4772727 159.022727,29.1969697 156.977273,32.7727273 C154.931818,36.3484848 153.909091,40.6969697 153.909091,45.8181818 C153.909091,50.7272727 154.867424,54.9621212 156.784091,58.5227273 C158.700758,62.0833333 161.371212,64.8257576 164.795455,66.75 C168.219697,68.6742424 172.19697,69.6363636 176.727273,69.6363636 Z M233,69 L233,58.8181818 L212.181818,58.8181818 L212.181818,50.8181818 L231.363636,50.8181818 L231.363636,40.6363636 L212.181818,40.6363636 L212.181818,32.6363636 L233.090909,32.6363636 L233.090909,22.4545455 L199.545455,22.4545455 L199.545455,69 L233,69 Z" id="FRDGE"></path>
            <g id="Group" transform="translate(73.000000, 0.000000)">
                <path d="M8,13.6666669 C8,14.3999838 7.5499878,15 7,15 C6.4500122,15 6,14.3999838 6,13.6666669 L6,8.33333311 C6,7.60001617 6.4500122,7 7,7 C7.5499878,7 8,7.60001617 8,8.33333311 L8,13.6666669 Z M30.9615388,0 L4.03846124,0 C1.81727471,0 0,1.68746945 0,3.74999926 L0,20 L35,20 L35,3.74999938 C35,1.68746945 33.1827253,0 30.9615388,0 Z" id="Shape"></path>
                <path d="M8,38.625 C8,39.3812332 7.5499878,40 7,40 C6.4500122,40 6,39.3812332 6,38.625 L6,30.375 C6,29.6187668 6.4500122,29 7,29 C7.5499878,29 8,29.6187668 8,30.375 L8,38.625 Z M0,22 L0,64.59375 C0,67.0171337 1.81727471,69 4.03846124,69 L30.9615388,69 C33.1827253,69 35,67.0171337 35,64.59375 L35,22 L0,22 Z" id="Shape"></path>
            </g>
        </g>
    </g>
</svg>